<svg preserveAspectRatio="none" overflow="visible" style="display: block;" width="24" height="24" viewBox="0 0 24 24" fill="none" xmlns="http://www.w3.org/2000/svg">
<g id="solar:cart-plus-bold">
<path id="Vector" fill-rule="evenodd" clip-rule="evenodd" d="M3.04042 2.29067C2.85264 2.22476 2.64638 2.23615 2.467 2.32232C2.28762 2.4085 2.14982 2.5624 2.08392 2.75017C2.01801 2.93794 2.0294 3.14421 2.11557 3.32359C2.20174 3.50296 2.35564 3.64076 2.54342 3.70667L2.80442 3.79767C3.47242 4.03267 3.91142 4.18767 4.23442 4.34667C4.53742 4.49567 4.67042 4.61667 4.75842 4.74467C4.84842 4.87667 4.91842 5.05867 4.95842 5.42167C4.99842 5.80167 5.00042 6.29667 5.00042 7.03667V9.63867C5.00042 12.5807 5.06342 13.5507 5.93042 14.4647C6.79642 15.3787 8.19042 15.3787 10.9804 15.3787H16.2824C17.8434 15.3787 18.6244 15.3787 19.1754 14.9287C19.7274 14.4787 19.8854 13.7147 20.2004 12.1867L20.7004 9.76167C21.0474 8.02167 21.2204 7.15267 20.7764 6.57567C20.3324 5.99867 18.8164 5.99867 17.1314 5.99867H6.49242C6.4882 5.75218 6.47385 5.50598 6.44942 5.26067C6.39542 4.76367 6.27942 4.31067 5.99742 3.89867C5.71342 3.48267 5.33542 3.21667 4.89442 2.99967C4.48242 2.79767 3.95842 2.61367 3.34242 2.39667L3.04042 2.29067ZM13.0004 8.24867C13.1993 8.24867 13.3901 8.32769 13.5307 8.46834C13.6714 8.60899 13.7504 8.79976 13.7504 8.99867V10.2487H15.0004C15.1993 10.2487 15.3901 10.3277 15.5307 10.4683C15.6714 10.609 15.7504 10.7998 15.7504 10.9987C15.7504 11.1976 15.6714 11.3883 15.5307 11.529C15.3901 11.6697 15.1993 11.7487 15.0004 11.7487H13.7504V12.9987C13.7504 13.1976 13.6714 13.3883 13.5307 13.529C13.3901 13.6697 13.1993 13.7487 13.0004 13.7487C12.8015 13.7487 12.6107 13.6697 12.4701 13.529C12.3294 13.3883 12.2504 13.1976 12.2504 12.9987V11.7487H11.0004C10.8015 11.7487 10.6107 11.6697 10.4701 11.529C10.3294 11.3883 10.2504 11.1976 10.2504 10.9987C10.2504 10.7998 10.3294 10.609 10.4701 10.4683C10.6107 10.3277 10.8015 10.2487 11.0004 10.2487H12.2504V8.99867C12.2504 8.79976 12.3294 8.60899 12.4701 8.46834C12.6107 8.32769 12.8015 8.24867 13.0004 8.24867Z" fill="white"/>
<path id="Vector_2" d="M7.5 17.9983C7.89782 17.9983 8.27936 18.1564 8.56066 18.4377C8.84196 18.719 9 19.1005 9 19.4983C9 19.8962 8.84196 20.2777 8.56066 20.559C8.27936 20.8403 7.89782 20.9983 7.5 20.9983C7.10218 20.9983 6.72064 20.8403 6.43934 20.559C6.15804 20.2777 6 19.8962 6 19.4983C6 19.1005 6.15804 18.719 6.43934 18.4377C6.72064 18.1564 7.10218 17.9983 7.5 17.9983ZM16.5 17.9983C16.8978 17.9983 17.2794 18.1564 17.5607 18.4377C17.842 18.719 18 19.1005 18 19.4983C18 19.8962 17.842 20.2777 17.5607 20.559C17.2794 20.8403 16.8978 20.9983 16.5 20.9983C16.1022 20.9983 15.7206 20.8403 15.4393 20.559C15.158 20.2777 15 19.8962 15 19.4983C15 19.1005 15.158 18.719 15.4393 18.4377C15.7206 18.1564 16.1022 17.9983 16.5 17.9983Z" fill="white"/>
</g>
</svg>
