<svg preserveAspectRatio="none" overflow="visible" style="display: block;" width="22.9091" height="22.9091" viewBox="0 0 22.9091 22.9091" fill="none" xmlns="http://www.w3.org/2000/svg">
<g id="solar:siren-rounded-bold-duotone">
<path id="Vector" opacity="0.5" d="M3.81818 15.2727V20.2841H19.0909V15.2727C19.0909 13.2474 18.2864 11.3051 16.8543 9.873C15.4222 8.44091 13.4798 7.63636 11.4545 7.63636C9.42926 7.63636 7.48692 8.44091 6.05482 9.873C4.62272 11.3051 3.81818 13.2474 3.81818 15.2727Z" fill="#D43720"/>
<path id="Vector_2" d="M12.1705 1.90909C12.1705 1.71922 12.095 1.53713 11.9608 1.40287C11.8265 1.26861 11.6444 1.19318 11.4545 1.19318C11.2647 1.19318 11.0826 1.26861 10.9483 1.40287C10.8141 1.53713 10.7386 1.71922 10.7386 1.90909V4.77273C10.7386 4.9626 10.8141 5.14469 10.9483 5.27895C11.0826 5.41321 11.2647 5.48864 11.4545 5.48864C11.6444 5.48864 11.8265 5.41321 11.9608 5.27895C12.095 5.14469 12.1705 4.9626 12.1705 4.77273V1.90909ZM20.5514 5.22136C20.6854 5.3556 20.7607 5.53756 20.7607 5.72727C20.7607 5.91699 20.6854 6.09895 20.5514 6.23318L19.1195 7.665C19.054 7.73534 18.975 7.79175 18.8872 7.83088C18.7993 7.87001 18.7045 7.89105 18.6084 7.89275C18.5123 7.89444 18.4168 7.87676 18.3277 7.84075C18.2385 7.80475 18.1575 7.75115 18.0896 7.68317C18.0216 7.61519 17.968 7.53421 17.932 7.44507C17.896 7.35593 17.8783 7.26044 17.88 7.16432C17.8817 7.06819 17.9027 6.97339 17.9418 6.88558C17.981 6.79776 18.0374 6.71872 18.1077 6.65318L19.5395 5.22136C19.6738 5.0873 19.8557 5.01199 20.0455 5.01199C20.2352 5.01199 20.4171 5.0873 20.5514 5.22136ZM3.36955 5.22136C3.23383 5.09491 3.05433 5.02606 2.86886 5.02933C2.6834 5.03261 2.50644 5.10774 2.37527 5.23891C2.2441 5.37007 2.16897 5.54703 2.1657 5.7325C2.16242 5.91797 2.23127 6.09747 2.35773 6.23318L3.78955 7.665C3.92526 7.79146 4.10476 7.8603 4.29023 7.85703C4.4757 7.85376 4.65265 7.77862 4.78382 7.64746C4.91499 7.51629 4.99012 7.33933 4.99339 7.15386C4.99667 6.96839 4.92782 6.78889 4.80136 6.65318L3.36955 5.22136ZM13.9096 10.3139C13.7346 10.2471 13.5403 10.2516 13.3686 10.3264C13.1968 10.4012 13.0612 10.5403 12.9909 10.714C12.9206 10.8876 12.9211 11.0819 12.9924 11.2552C13.0637 11.4284 13.2 11.5668 13.3722 11.6407C14.1492 11.9557 14.7716 12.5771 15.0856 13.355C15.1196 13.444 15.171 13.5253 15.2367 13.5942C15.3025 13.6631 15.3813 13.7182 15.4687 13.7562C15.556 13.7942 15.65 13.8145 15.7452 13.8157C15.8405 13.8169 15.935 13.7991 16.0233 13.7634C16.1115 13.7276 16.1918 13.6746 16.2593 13.6075C16.3269 13.5403 16.3803 13.4603 16.4166 13.3723C16.4528 13.2842 16.4711 13.1898 16.4704 13.0945C16.4697 12.9993 16.45 12.9052 16.4125 12.8176C16.1841 12.254 15.8448 11.742 15.4149 11.312C14.985 10.8819 14.4731 10.5425 13.9096 10.3139ZM12.1705 17.9455C12.4434 17.7879 12.6568 17.5446 12.7774 17.2534C12.898 16.9622 12.9192 16.6393 12.8376 16.3349C12.756 16.0304 12.5762 15.7614 12.3262 15.5695C12.0761 15.3776 11.7697 15.2736 11.4545 15.2736C11.1394 15.2736 10.833 15.3776 10.5829 15.5695C10.3329 15.7614 10.1531 16.0304 10.0715 16.3349C9.98994 16.6393 10.0111 16.9622 10.1317 17.2534C10.2523 17.5446 10.4657 17.7879 10.7386 17.9455V20.2841H12.1705V17.9455ZM3.81818 20.2841H1.90909C1.71922 20.2841 1.53713 20.3595 1.40287 20.4938C1.26861 20.628 1.19318 20.8101 1.19318 21C1.19318 21.1899 1.26861 21.372 1.40287 21.5062C1.53713 21.6405 1.71922 21.7159 1.90909 21.7159H21C21.1899 21.7159 21.372 21.6405 21.5062 21.5062C21.6405 21.372 21.7159 21.1899 21.7159 21C21.7159 20.8101 21.6405 20.628 21.5062 20.4938C21.372 20.3595 21.1899 20.2841 21 20.2841H3.81818Z" fill="#D43720"/>
</g>
</svg>
